<?xml version="1.0" encoding="UTF-8" standalone="no"?>
<!-- Created with Inkscape (http://www.inkscape.org/) -->

<svg
   width="512"
   height="512"
   viewBox="0 0 135.46666 135.46667"
   version="1.1"
   id="svg5"
   xml:space="preserve"
   inkscape:version="1.2 (dc2aedaf03, 2022-05-15)"
   sodipodi:docname="icon.svg"
   inkscape:export-filename="icon.png"
   inkscape:export-xdpi="96"
   inkscape:export-ydpi="96"
   xmlns:inkscape="http://www.inkscape.org/namespaces/inkscape"
   xmlns:sodipodi="http://sodipodi.sourceforge.net/DTD/sodipodi-0.dtd"
   xmlns="http://www.w3.org/2000/svg"
   xmlns:svg="http://www.w3.org/2000/svg"><sodipodi:namedview
     id="namedview7"
     pagecolor="#ffffff"
     bordercolor="#000000"
     borderopacity="0.25"
     inkscape:showpageshadow="2"
     inkscape:pageopacity="0.0"
     inkscape:pagecheckerboard="0"
     inkscape:deskcolor="#d1d1d1"
     inkscape:document-units="mm"
     showgrid="false"
     inkscape:zoom="0.76078844"
     inkscape:cx="574.4041"
     inkscape:cy="36.803924"
     inkscape:window-width="1920"
     inkscape:window-height="1009"
     inkscape:window-x="760"
     inkscape:window-y="157"
     inkscape:window-maximized="1"
     inkscape:current-layer="layer1" /><defs
     id="defs2" /><g
     inkscape:label="Layer 1"
     inkscape:groupmode="layer"
     id="layer1"><path
       style="fill:#8dc63f;fill-opacity:1;stroke:none;stroke-width:0.463992"
       d="m 37.038057,132.77108 c -4.18767,-1.49271 -6.39179,-5.5504 -4.92202,-9.06123 0.5365,-1.28154 2.94524,-3.57968 4.33159,-4.13271 0.56655,-0.226 5.45009,-0.44539 12.32784,-0.55382 l 11.38964,-0.17956 v -3.94219 -3.9422 l -23.04011,-0.0965 -23.0401,-0.0965 -2.60832,-1.25141 C 7.8173666,107.75937 5.5281266,105.58142 3.9179966,102.3239 l -1.30968,-2.649687 -0.0981,-40.158796 c -0.054,-22.087343 0.0398,-41.68213 0.20843,-43.543978 0.32702,-3.611239 0.93807,-5.215953 2.9568,-7.7649311 1.38115,-1.743937 5.0698204,-4.127219 7.8236204,-5.054904 2.15241,-0.725095 2.21824,-0.725855 54.9278,-0.634627 l 52.772813,0.09134 2.71088,1.294435 c 3.33399,1.591966 6.34767,4.366699 7.75117,7.1365921 1.00264,1.978771 1.01713,2.091863 1.2367,9.653282 0.28953,9.970937 0.29092,62.916786 0.002,72.337236 -0.21686,7.068218 -0.25529,7.366868 -1.19432,9.279048 -1.36731,2.78432 -4.28237,5.57109 -7.48198,7.1527 l -2.63958,1.30478 -22.189163,0.0968 -22.18916,0.0968 v 3.94297 3.94298 l 11.91129,0.16846 c 13.224383,0.18705 13.337223,0.20533 15.638183,2.53443 3.2656,3.30555 2.40003,8.12873 -1.90151,10.59563 l -1.82521,1.04684 -31.473653,-0.0242 c -21.40168,-0.0165 -31.80753,-0.1432 -32.51698,-0.39609 z"
       id="path587"
       inkscape:label="monitor" /><g
       id="g1279"
       transform="translate(1.1845907,-1.0035856)"
       inkscape:label="engine"
       style="fill:#ffffff;fill-opacity:1"><path
         style="fill:#ffffff;fill-opacity:1;stroke-width:0.277496"
         d="m 27.723304,54.023878 c 2.373409,-1.406124 5.678102,-2.374541 8.968354,-2.628116 l 2.429481,-0.187235 v -1.758695 c 0,-3.780199 2.255018,-9.200519 5.343578,-12.844212 5.760197,-6.795518 15.585008,-10.585937 24.918188,-9.613452 1.516128,0.157975 2.881137,0.287227 3.033348,0.287227 0.152217,0 0.756329,-0.686451 1.342474,-1.525448 1.548093,-2.215904 4.713748,-4.739987 7.477692,-5.962214 1.275412,-0.563995 2.617251,-1.094366 2.981862,-1.178606 1.132529,-0.261659 0.743019,-0.645727 -1.477463,-1.456823 -2.926672,-1.069053 -4.733655,-1.520735 -4.853348,-1.213169 -0.0537,0.138009 -0.629618,0.991889 -1.279803,1.897513 -0.876273,1.220535 -1.31474,1.612199 -1.694573,1.513687 -0.281828,-0.07309 -1.01421,-0.211504 -1.627516,-0.307577 -1.33786,-0.209572 -1.557742,-0.530068 -1.834543,-2.674015 -0.265015,-2.052642 -0.554996,-2.181157 -4.689719,-2.078396 l -2.973205,0.07389 -0.450631,2.011139 c -0.247845,1.106126 -0.58348,2.121199 -0.745854,2.255717 -0.162374,0.134518 -0.983141,0.325069 -1.823932,0.423448 l -1.528702,0.178869 -1.228305,-1.977298 c -1.144439,-1.842289 -1.281953,-1.965877 -2.014011,-1.810017 -1.221581,0.260079 -5.780964,1.684967 -6.004908,1.876638 -0.110187,0.09431 -0.08016,0.758353 0.06674,1.475639 0.671032,3.276486 0.747135,2.91542 -0.796815,3.780491 -0.769652,0.431232 -1.501184,0.784059 -1.625631,0.784059 -0.124447,0 -1.04516,-0.645558 -2.04603,-1.434573 -1.00087,-0.789015 -1.923925,-1.434573 -2.051236,-1.434573 -0.306302,0 -3.098529,1.919367 -4.483432,3.081896 l -1.099069,0.922592 1.223117,2.000702 1.223116,2.000702 -0.985329,1.083267 c -0.541933,0.595797 -1.19559,1.079227 -1.452567,1.074289 -0.256979,-0.0049 -1.439774,-0.347933 -2.628431,-0.762215 l -2.161195,-0.753234 -1.268865,1.740332 c -0.697876,0.957182 -1.544963,2.222224 -1.882422,2.811205 l -0.613556,1.070878 1.903226,1.390979 c 1.046775,0.76504 1.903885,1.515575 1.904688,1.667855 8.85e-4,0.152279 -0.224721,0.8344 -0.501162,1.515822 l -0.502619,1.23895 H 29.49163 26.768964 l -0.45739,1.776703 c -0.251566,0.977187 -0.540152,2.415019 -0.641305,3.195184 l -0.183915,1.418482 2.401414,0.774185 2.401416,0.774184 -0.08622,1.573299 -0.08622,1.573298 -2.346189,0.725221 c -1.290405,0.398874 -2.40238,0.774865 -2.471055,0.835542 -0.134975,0.119247 0.206073,1.960461 0.363136,1.960461 0.05232,0 0.979632,-0.524015 2.060673,-1.164479 z"
         id="path705" /><path
         style="fill:#ffffff;fill-opacity:1;stroke-width:0.277496"
         d="m 24.792434,54.827737 c -0.326443,-1.923266 -0.222857,-2.044462 2.447936,-2.864112 l 2.433529,-0.746833 V 50.095399 48.97401 l -2.14039,-0.70762 c -1.177215,-0.389192 -2.285541,-0.866115 -2.462948,-1.059828 -0.365588,-0.399195 -0.09169,-2.419354 0.714598,-5.270449 l 0.493639,-1.745563 2.703073,-0.07467 2.703071,-0.07467 0.469079,-1.035765 0.469082,-1.035761 -1.105569,-0.874779 c -0.608063,-0.48113 -1.501911,-1.172675 -1.98633,-1.536766 l -0.880757,-0.661988 0.535119,-1.004439 c 0.754184,-1.415636 3.05384,-4.655509 3.576476,-5.038725 0.353897,-0.259491 0.892608,-0.167316 2.817398,0.482061 l 2.379833,0.802899 0.84658,-0.837102 0.846578,-0.8371 -1.151325,-1.853376 c -0.633229,-1.019355 -1.151325,-2.004625 -1.151325,-2.189487 0,-0.655268 5.328551,-4.444766 6.249947,-4.444766 0.293703,0 1.267503,0.586871 2.164002,1.304157 0.896499,0.717287 1.750674,1.304157 1.898172,1.304157 0.147495,0 0.676655,-0.205404 1.175913,-0.456455 1.013703,-0.50974 1.054932,-0.729207 0.584923,-3.113752 -0.239967,-1.217452 -0.239063,-1.749834 0.0035,-2.00796 0.463555,-0.493477 6.899993,-2.374917 7.466998,-2.182686 0.256817,0.08707 0.968117,0.978103 1.580673,1.980077 1.106777,1.810394 1.120349,1.820891 2.172931,1.680653 0.582559,-0.07761 1.192046,-0.247844 1.354421,-0.378285 0.162374,-0.130442 0.498082,-1.14218 0.746013,-2.248306 l 0.450778,-2.011138 3.759072,-0.07302 c 2.06749,-0.04016 4.002223,0.04195 4.299406,0.182467 0.399394,0.188846 0.62275,0.774411 0.856313,2.244957 0.17379,1.094209 0.361109,2.028143 0.416266,2.075409 0.05515,0.04727 0.698118,0.161411 1.428803,0.253655 l 1.328518,0.167717 1.031813,-1.598988 c 0.567498,-0.879443 1.181635,-1.708839 1.364749,-1.843104 0.215184,-0.157782 1.259822,0.04452 2.953738,0.572003 3.847825,1.198214 4.890904,1.716476 4.77971,2.374836 -0.05078,0.300623 -0.291595,0.633592 -0.535156,0.73993 -0.243562,0.106338 -1.638506,0.694491 -3.099876,1.307008 -2.089677,0.875863 -3.104956,1.508615 -4.754719,2.963274 -1.153727,1.017284 -2.533685,2.53319 -3.066577,3.368681 -0.799027,1.252755 -1.078246,1.49519 -1.592646,1.382829 -2.183245,-0.476883 -5.961952,-0.672655 -8.350625,-0.432638 -6.804103,0.683686 -11.951431,2.866076 -16.629291,7.050566 -4.62564,4.137777 -7.124432,8.97977 -7.62453,14.774298 l -0.198966,2.305368 -2.952262,0.320992 c -1.623744,0.176549 -3.749373,0.572736 -4.72362,0.880419 -1.894447,0.5983 -4.854837,2.070346 -5.460709,2.715327 -0.740498,0.788296 -1.427244,0.47292 -1.634953,-0.750826 z"
         id="path703" /><path
         style="fill:#ffffff;fill-opacity:1;stroke-width:0.277496"
         d="m 87.390631,76.438685 c 1.285395,-0.431489 2.937144,-0.748177 4.36959,-0.837777 1.96268,-0.122771 2.274025,-0.20587 2.106897,-0.562335 -0.505208,-1.077534 -0.434596,-1.351414 0.641731,-2.489033 1.280957,-1.353903 1.769728,-1.438809 3.817736,-0.663207 1.722975,0.652512 1.743905,0.639085 3.841995,-2.464468 l 1.59926,-2.365678 -1.52542,-1.265447 -1.52541,-1.265447 0.36524,-1.212451 c 0.20088,-0.66685 0.56837,-1.487806 0.81664,-1.824352 0.41208,-0.558602 0.62277,-0.604041 2.41881,-0.521662 l 1.96741,0.09023 0.52767,-1.82582 c 0.29021,-1.004201 0.55592,-2.457043 0.59044,-3.228535 l 0.0628,-1.402715 -1.77135,-0.589938 -1.77136,-0.58994 V 51.5225 49.624889 l 1.82442,-0.543869 c 1.00343,-0.29913 1.91099,-0.621891 2.0168,-0.717245 0.17492,-0.157653 -0.26021,-3.401777 -0.65215,-4.86201 -0.14632,-0.545154 -0.2594,-0.472147 -1.21189,0.782494 -2.25861,2.975057 -6.040879,5.46763 -10.179847,6.708683 l -1.539805,0.461705 -0.201271,2.120464 c -0.356627,3.757196 -1.847122,7.598859 -4.226353,10.893172 -2.363812,3.272966 -7.926551,7.540139 -11.594544,8.894175 -0.989212,0.365167 -1.027629,0.418227 -0.496146,0.685241 4.01991,2.019576 6.859186,3.273943 7.218686,3.189152 0.243562,-0.05744 1.372802,-0.416624 2.509423,-0.798173 z"
         id="path701" /><path
         style="fill:#ffffff;fill-opacity:1;stroke-width:0.277496"
         d="m 80.231587,75.984841 c -2.151359,-1.037413 -3.911645,-2.039522 -3.911748,-2.226911 -1.07e-4,-0.187389 0.630854,-0.582899 1.402133,-0.878914 3.937258,-1.5111 8.833762,-5.22462 11.390619,-8.638669 2.402035,-3.207321 3.880761,-7.029476 4.257754,-11.005275 l 0.220037,-2.320557 1.623745,-0.429306 c 4.525449,-1.196493 8.466753,-3.92099 10.833283,-7.488692 0.41337,-0.623209 0.89823,-1.089925 1.07743,-1.037151 0.38854,0.114424 0.96964,2.464716 1.24913,5.052135 l 0.20147,1.865156 -2.10465,0.598877 -2.10465,0.598876 v 1.450774 1.450772 l 1.91897,0.608038 1.91897,0.60804 v 1.18316 c 0,1.461834 -1.13874,5.868279 -1.58876,6.147817 -0.18162,0.112815 -1.1546,0.133376 -2.16218,0.04569 l -1.83198,-0.15942 -0.4646,0.982411 c -0.87433,1.848761 -0.84429,1.975378 0.73522,3.099501 0.80629,0.57383 1.46787,1.201677 1.47016,1.395219 0.004,0.340082 -2.80722,4.653614 -3.63799,5.582022 -0.525,0.586694 -1.014992,0.574883 -2.705174,-0.06521 -0.75761,-0.286914 -1.532519,-0.511727 -1.722028,-0.499583 -0.189506,0.01213 -0.784103,0.474176 -1.321329,1.026739 -0.958626,0.985996 -0.968,1.019653 -0.504581,1.811402 0.259705,0.443708 0.404402,0.903647 0.321546,1.022093 -0.08286,0.118445 -1.184311,0.278161 -2.447683,0.354927 -1.377241,0.08369 -3.183654,0.418965 -4.511231,0.837308 -3.462947,1.09124 -3.274864,1.11527 -7.601883,-0.971276 z"
         id="path699" /><path
         style="fill:#ffffff;fill-opacity:1;stroke-width:0.277496"
         d="m 96.82755,103.04234 c 2.457983,-0.56563 4.3592,-1.55466 6.08163,-3.163689 4.56267,-4.262294 4.56267,-10.781338 0,-15.043628 -4.296845,-4.013971 -11.260684,-4.644291 -16.223006,-1.468394 -0.665171,0.425707 -1.358844,0.774017 -1.541501,0.774017 -0.232723,0 -33.929992,-15.678366 -34.408288,-16.009184 -0.02542,-0.01758 -0.137918,-0.576469 -0.250033,-1.241993 l -0.203845,-1.210047 16.044638,-10.11993 c 8.824551,-5.565962 16.382517,-10.336754 16.79548,-10.601762 0.734172,-0.471137 0.782786,-0.469348 2.190015,0.08062 2.201685,0.860447 5.742,0.976404 8.360116,0.273823 5.838548,-1.566795 9.723684,-7.041154 8.647464,-12.184713 -1.93722,-9.2585 -14.575228,-12.53973 -21.650084,-5.62105 -2.016404,1.971891 -3.169584,4.749485 -3.169584,7.634373 V 36.90836 L 60.894075,47.39721 c -9.133562,5.76887 -16.884208,10.537532 -17.223659,10.597029 -0.33945,0.05949 -1.326737,-0.07799 -2.193973,-0.305528 -3.360679,-0.88174 -7.50513,-0.275592 -10.47606,1.532179 -5.006933,3.046657 -6.803166,9.032607 -4.148796,13.825875 3.292761,5.946078 11.588247,8.050812 17.904699,4.542786 0.744899,-0.413702 1.436204,-0.752185 1.536232,-0.752185 0.28931,0 34.267561,15.957168 34.676508,16.28509 0.202726,0.162561 0.572442,0.987005 0.821585,1.832098 0.635838,2.156744 1.75711,3.850323 3.52995,5.331656 3.252271,2.71752 7.379271,3.70601 11.506989,2.75613 z"
         id="path697" /><path
         style="fill:#ffffff;fill-opacity:1;stroke-width:0.277496"
         d="m 90.490507,103.59059 c -2.115627,-0.52009 -3.834386,-1.41264 -5.623231,-2.92013 -1.891057,-1.593615 -3.068449,-3.337826 -3.777948,-5.596719 l -0.4889,-1.556558 -17.123123,-8.049 -17.123122,-8.049002 -0.885679,0.506929 c -5.133598,2.938274 -11.618086,2.54422 -16.048789,-0.975261 -3.169717,-2.51783 -4.659919,-5.685177 -4.393819,-9.338819 0.17586,-2.414647 0.729209,-3.849513 2.276413,-5.902887 3.006743,-3.990408 9.071638,-5.883364 14.52142,-4.532382 l 1.708035,0.423416 16.615359,-10.481508 16.615364,-10.481511 0.189416,-2.484863 c 0.162941,-2.13757 0.338409,-2.751208 1.255468,-4.390572 2.54694,-4.553001 8.370818,-7.274279 13.76973,-6.434074 6.786109,1.056087 11.675519,6.449572 11.123209,12.269963 -0.44441,4.683361 -3.948467,8.701088 -8.891886,10.195373 -2.388953,0.722128 -6.010549,0.714822 -8.534554,-0.01721 L 83.797099,45.231449 67.437452,55.562395 C 51.184917,65.825702 51.078443,65.898858 51.175655,66.7356 c 0.05382,0.463241 0.186668,0.918457 0.295226,1.011589 0.108558,0.09314 7.735575,3.70913 16.948933,8.035546 l 16.751563,7.86621 0.962013,-0.636265 c 4.149628,-2.744515 9.8871,-2.99158 14.46218,-0.622769 1.57577,0.815875 4.10026,3.145231 4.88631,4.508607 2.01847,3.500999 2.01847,7.415646 0,10.916645 -0.78605,1.363379 -3.31054,3.692737 -4.88631,4.508607 -2.930584,1.51735 -7.007127,2.02841 -10.105063,1.26683 z"
         id="path695" /><path
         style="fill:#ffffff;fill-opacity:1;stroke:none;stroke-width:0.463992"
         d="m 35.810867,52.31041 c 2.00292,-0.291459 3.69829,-0.586549 3.7675,-0.655756 0.06921,-0.06921 0.269843,-1.273522 0.445857,-2.67625 0.806823,-6.429909 3.907152,-11.611628 9.432671,-15.765235 5.564473,-4.182888 13.286478,-6.239105 20.245178,-5.39089 l 3.156826,0.384796 0.812104,-0.975026 c 2.96858,-3.564133 4.836956,-5.084328 8.316995,-6.767081 4.18388,-2.023095 4.482613,-2.599941 1.912762,-3.693527 -0.908563,-0.386635 -2.651469,-0.980285 -3.873127,-1.319224 l -2.221195,-0.616252 -0.988306,1.189453 c -0.543571,0.654199 -1.080442,1.463326 -1.193051,1.798059 -0.218967,0.650891 -1.710098,0.826408 -2.542083,0.299224 -0.259299,-0.164303 -0.612558,-1.061775 -0.785024,-1.994382 -0.17246,-0.932607 -0.57709,-1.891273 -0.899176,-2.130368 -0.386302,-0.286768 -1.905296,-0.434719 -4.463205,-0.434719 h -3.877604 l -0.41171,1.825819 c -0.515223,2.284874 -0.706874,2.585829 -1.825466,2.866578 -0.790888,0.1985 -1.060101,0.0068 -2.180135,-1.552179 -0.702808,-0.978254 -1.495174,-1.862045 -1.76081,-1.96398 -0.552093,-0.211858 -5.447745,1.08928 -6.895516,1.832651 -0.944599,0.485012 -0.95994,0.541902 -0.735883,2.728856 0.221764,2.164525 0.200901,2.246245 -0.675444,2.645535 -0.809381,0.368778 -1.097444,0.278981 -2.744885,-0.855655 -1.012333,-0.69722 -2.063086,-1.267672 -2.335009,-1.267672 -0.658029,0 -4.557204,2.556923 -5.613032,3.680799 l -0.837642,0.891627 1.109292,2.00247 1.109292,2.002471 -0.698968,0.698966 -0.698966,0.698965 -2.455666,-0.723167 -2.455667,-0.723167 -1.086834,1.265163 c -0.59776,0.695839 -1.626775,2.161699 -2.286696,3.257463 -1.355241,2.250305 -1.545058,1.725189 1.508138,4.172191 1.234141,0.98911 1.287008,1.109075 0.881208,1.999707 -0.416197,0.913456 -0.528994,0.947471 -3.141728,0.947471 h -2.710031 l -0.361942,1.304157 c -0.679444,2.448177 -1.147184,5.275125 -0.955473,5.774717 0.105283,0.274362 1.21991,0.841102 2.476948,1.259416 2.107139,0.701212 2.285526,0.838388 2.285526,1.757551 0,0.922435 -0.157165,1.041074 -2.102059,1.586788 -2.351696,0.65985 -3.210956,1.52436 -2.883307,2.900915 0.417335,1.753362 0.651513,1.751415 4.206226,-0.035 2.865104,-1.439852 3.949002,-1.784069 7.029117,-2.232278 z"
         id="path713" /><path
         style="fill:#ffffff;fill-opacity:1;stroke:none;stroke-width:0.463992"
         d="m 87.730689,77.20223 c 1.384334,-0.38467 3.583138,-0.799301 4.886237,-0.921401 L 94.986201,76.058833 94.767304,74.7632 c -0.188588,-1.11624 -0.09468,-1.393332 0.678209,-2.001289 0.862126,-0.678149 0.965488,-0.68379 2.651291,-0.144693 1.244669,0.398029 1.925226,0.458629 2.343036,0.208627 0.32387,-0.193787 1.4176,-1.595867 2.43052,-3.115734 l 1.84168,-2.76339 -1.40696,-1.31672 c -1.51386,-1.416765 -1.6334,-1.805197 -0.99009,-3.217122 0.38401,-0.842798 0.53516,-0.897186 1.91732,-0.689922 0.82524,0.123756 1.792,0.132472 2.14835,0.01937 0.70319,-0.223182 1.57673,-2.854365 1.97102,-5.936835 l 0.22401,-1.751298 -1.94768,-0.613955 c -1.91767,-0.604494 -1.94768,-0.634416 -1.94768,-1.941455 0,-1.325739 0.003,-1.328282 2.08862,-1.91354 1.84311,-0.517152 2.07018,-0.675839 1.93175,-1.349986 -0.0863,-0.420172 -0.25208,-1.546442 -0.36844,-2.502824 -0.23532,-1.934033 -0.81594,-3.999415 -1.12432,-3.999415 -0.11035,0 -1.34151,1.228037 -2.73591,2.728971 -2.64117,2.842971 -5.590326,4.727413 -8.833858,5.644631 -2.166089,0.61254 -2.434426,0.893707 -2.434426,2.550835 0,2.112827 -0.880325,5.239602 -2.285503,8.11775 -2.120479,4.343254 -7.079181,8.972026 -12.230073,11.416336 -1.388973,0.659125 -2.525408,1.337855 -2.525408,1.508289 0,0.641541 7.081559,4.155925 8.437951,4.187524 0.337153,0.0079 1.745644,-0.30045 3.129976,-0.685125 z"
         id="path711" /><path
         style="fill:#ffffff;fill-opacity:1;stroke:none;stroke-width:0.463992;stroke-opacity:1"
         d="m 99.55342,102.96995 c 2.87415,-1.11393 5.84738,-4.067164 6.85626,-6.810115 C 110.31797,85.533867 97.029798,76.507913 86.422131,82.58335 l -1.391102,0.796739 -16.693208,-7.869404 c -13.887762,-6.546876 -16.71129,-7.99629 -16.800804,-8.624419 -0.08327,-0.584321 0.349174,-1.064278 1.912766,-2.122921 1.648844,-1.116364 28.455627,-18.125755 29.921485,-18.98573 0.234794,-0.137745 1.643285,0.0031 3.129979,0.313082 3.181506,0.663262 6.245045,0.454914 9.118351,-0.620126 2.728709,-1.020942 5.938412,-4.265342 6.966112,-7.041414 3.70383,-10.004949 -8.575279,-19.000055 -18.984603,-13.907246 -3.727599,1.823742 -6.731876,5.881534 -6.739396,9.102696 -0.0019,0.800473 -0.143306,1.823389 -0.314303,2.273149 -0.217361,0.571706 -5.243029,3.930915 -16.703665,11.164906 L 43.45098,57.40982 42.157282,57.050527 c -1.879868,-0.52209 -6.288342,-0.443466 -8.273026,0.147544 -4.085196,1.216518 -7.572943,4.400741 -8.54517,7.801526 -0.676742,2.367195 -0.516357,5.48686 0.390455,7.594801 0.972658,2.261007 3.844795,5.026083 6.525686,6.282441 1.792787,0.84016 2.398053,0.937564 5.826154,0.937564 3.549422,0 3.988683,-0.07719 6.086065,-1.06944 l 2.260539,-1.069441 16.867097,7.929652 c 9.276903,4.36131 16.975045,8.129032 17.106987,8.372719 0.13194,0.243686 0.61726,1.310949 1.078489,2.371698 1.429634,3.287911 4.458992,5.998879 7.985864,7.146539 2.232556,0.72648 7.573814,0.44786 10.086998,-0.52618 z"
         id="path709" /></g></g></svg>
